<svg width="44" height="44" viewBox="0 0 44 44" fill="none" xmlns="http://www.w3.org/2000/svg">
<path d="M44 24.4547L34.2222 34.2324L24.4444 24.4547L27.9014 20.9977L31.7778 24.8729V22C31.7778 16.5999 27.4001 12.2222 22 12.2222H19.5556V7.33334L22 7.33334C30.1002 7.33334 36.6667 13.8998 36.6667 22V24.8729L40.543 20.9977L44 24.4547Z" fill="#050607"/>
<path d="M19.5556 19.5556L9.77778 9.77779L0 19.5556L3.45697 23.0125L7.33333 19.1373V22C7.33333 30.1002 13.8998 36.6667 22 36.6667H24.4444V31.7778H22C16.5999 31.7778 12.2222 27.4001 12.2222 22V19.1373L16.0986 23.0125L19.5556 19.5556Z" fill="#050607"/>
</svg>
